<svg width="19" height="18" viewBox="0 0 19 18" fill="none" xmlns="http://www.w3.org/2000/svg">
<path d="M2.58997 3.89C3.28997 3.18 3.98997 2.54 4.29997 2.67C4.79997 2.87 4.29997 3.7 3.99997 4.19C3.74997 4.61 1.13997 8.08 1.13997 10.5C1.13997 11.78 1.61997 12.84 2.47997 13.48C3.22997 14.04 4.21997 14.21 5.11997 13.94C6.18997 13.63 7.06997 12.54 8.17997 11.17C9.38997 9.68 11.01 7.73 12.26 7.73C13.89 7.73 13.91 8.74 14.02 9.52C10.24 10.16 8.63997 13.19 8.63997 14.89C8.63997 16.59 10.08 17.98 11.85 17.98C13.48 17.98 16.14 16.65 16.54 11.88H19V9.38H16.53C16.38 7.73 15.44 5.18 12.5 5.18C10.25 5.18 8.31997 7.09 7.55997 8.02C6.97997 8.75 5.49997 10.5 5.26997 10.74C5.01997 11.04 4.58997 11.58 4.15997 11.58C3.70997 11.58 3.43997 10.75 3.79997 9.66C4.14997 8.57 5.19997 6.8 5.64997 6.14C6.42997 5 6.94997 4.22 6.94997 2.86C6.94997 0.69 5.30997 0 4.43997 0C3.11997 0 1.96997 1 1.71997 1.25C1.35997 1.61 1.05997 1.91 0.839966 2.18L2.58997 3.89ZM11.88 15.55C11.57 15.55 11.14 15.29 11.14 14.83C11.14 14.23 11.87 12.63 14.01 12.07C13.71 14.76 12.58 15.55 11.88 15.55Z" fill="#FCFAF9"/>
</svg>
